<svg width="23" height="21" viewBox="0 0 23 21" fill="none" xmlns="http://www.w3.org/2000/svg">
<path fill-rule="evenodd" clip-rule="evenodd" d="M20.286 18.8343C19.2001 18.8424 4.18182 18.8328 4.18182 18.8328L19.9301 15.3744C19.9301 15.3744 21.0583 17.2664 21.2443 17.5894C21.4302 17.9123 21.3719 18.8262 20.286 18.8343ZM17.2691 10.6783L19.3439 14.1851L3.97031 17.7166L17.2691 10.6783ZM3.43798 16.7614L14.5403 6.08831L16.6185 9.60984L3.43798 16.7614ZM10.7458 2.34531C11.0937 1.75882 11.9633 1.75882 12.3111 2.34531L13.9052 5.03268L2.71334 15.8877L10.7458 2.34531ZM22.7809 17.4009C22.3504 16.6734 13.1293 1.08767 13.1293 1.08767C12.4062 -0.134691 10.5982 -0.134691 9.87496 1.08767C9.87496 1.08767 0.714046 16.6014 0.201773 17.4625C-0.3105 18.3236 0.111731 20.1709 1.94098 20.1709C3.77034 20.1709 18.7174 20.1627 20.957 20.1668C23.1966 20.1709 23.2112 18.1285 22.7809 17.4009Z" fill="url(#paint0_linear_1669_15525)"/>
<defs>
<linearGradient id="paint0_linear_1669_15525" x1="0.958333" y1="19.2185" x2="17.1938" y2="9.12807" gradientUnits="userSpaceOnUse">
<stop stop-color="#EB4B28"/>
<stop offset="1" stop-color="#B5D5CA"/>
</linearGradient>
</defs>
</svg>
