<svg width="39" height="35" viewBox="0 0 39 35" fill="none" xmlns="http://www.w3.org/2000/svg">
<path opacity="0.3" d="M38.7957 27.5953L32.3575 34.5224C32.2183 34.6729 32.0496 34.7929 31.8621 34.8751C31.6746 34.9573 31.4722 34.9998 31.2675 35H0.748034C0.602472 34.9999 0.460092 34.9572 0.338328 34.8772C0.216565 34.7972 0.120703 34.6832 0.0624801 34.5494C0.00425727 34.4155 -0.0137994 34.2675 0.0105211 34.1235C0.0348416 33.9795 0.100484 33.8457 0.19941 33.7385L6.63031 26.8115C6.76956 26.661 6.9382 26.541 7.12573 26.4588C7.31327 26.3766 7.51566 26.3341 7.72029 26.3339H38.2398C38.3867 26.3309 38.5312 26.3715 38.6552 26.4506C38.7791 26.5298 38.8769 26.644 38.9364 26.7789C38.9958 26.9137 39.0141 27.0632 38.9891 27.2085C38.9641 27.3537 38.8968 27.4884 38.7957 27.5953ZM32.3575 13.6428C32.2177 13.493 32.049 13.3734 31.8616 13.2913C31.6742 13.2092 31.472 13.1663 31.2675 13.1652H0.748034C0.602472 13.1653 0.460092 13.208 0.338328 13.288C0.216565 13.368 0.120703 13.482 0.0624801 13.6158C0.00425727 13.7497 -0.0137994 13.8977 0.0105211 14.0417C0.0348416 14.1857 0.100484 14.3195 0.19941 14.4267L6.63031 21.3574C6.77009 21.5071 6.93885 21.6267 7.12626 21.7088C7.31367 21.791 7.51579 21.8339 7.72029 21.835H38.2398C38.3851 21.8342 38.5269 21.791 38.6482 21.7107C38.7694 21.6304 38.8647 21.5164 38.9225 21.3827C38.9802 21.2489 38.998 21.1012 38.9735 20.9575C38.9491 20.8139 38.8835 20.6804 38.7848 20.5735L32.3575 13.6428ZM0.748034 8.66627H31.2675C31.4722 8.66609 31.6746 8.62359 31.8621 8.54142C32.0497 8.45925 32.2183 8.33916 32.3575 8.18866L38.7957 1.26161C38.8712 1.18156 38.9281 1.08576 38.9624 0.981063C38.9966 0.87637 39.0075 0.76537 38.994 0.655997C38.9806 0.546624 38.9432 0.44158 38.8846 0.348374C38.8261 0.255168 38.7477 0.176101 38.6551 0.116827C38.5311 0.0376959 38.3867 -0.00289454 38.2398 0.000160613H7.72029C7.51566 0.000376751 7.31327 0.0428963 7.12573 0.125068C6.9382 0.207239 6.76956 0.3273 6.63031 0.477763L0.19941 7.40481C0.100484 7.51196 0.0348416 7.64573 0.0105211 7.78975C-0.0137994 7.93376 0.00425727 8.08176 0.0624801 8.21563C0.120703 8.3495 0.216565 8.46343 0.338328 8.54347C0.460092 8.62351 0.602472 8.66618 0.748034 8.66627Z" fill="url(#paint0_linear_1911_16069)"/>
<defs>
<linearGradient id="paint0_linear_1911_16069" x1="3.29133" y1="35.8349" x2="35.4167" y2="-0.258158" gradientUnits="userSpaceOnUse">
<stop offset="0.08" stop-color="#9945FF"/>
<stop offset="0.3" stop-color="#8752F3"/>
<stop offset="0.5" stop-color="#5497D5"/>
<stop offset="0.6" stop-color="#43B4CA"/>
<stop offset="0.72" stop-color="#28E0B9"/>
<stop offset="0.97" stop-color="#19FB9B"/>
</linearGradient>
</defs>
</svg>
