<svg width="138" height="133" viewBox="0 0 138 133" fill="none" xmlns="http://www.w3.org/2000/svg">
<path d="M56.1059 6.15787C55.2275 4.50927 53.2845 3.94389 51.764 4.8958C50.2435 5.84771 49.7208 7.95454 50.6039 9.60067L56.4282 20.5399C57.3066 22.1885 59.2495 22.7516 60.7701 21.802C62.2907 20.8524 62.8133 18.7432 61.9349 17.0946L56.1059 6.15787ZM90.3351 4.60473C89.9573 4.38623 89.5401 4.24447 89.1074 4.18762C88.6746 4.13077 88.2349 4.15993 87.8135 4.27344C87.3921 4.38695 86.9973 4.58257 86.6517 4.84905C86.3062 5.11554 86.0167 5.44764 85.7999 5.82628L79.7012 16.4218C79.4817 16.7997 79.3389 17.2171 79.2809 17.6501C79.2228 18.0831 79.2507 18.5233 79.3628 18.9456C79.5893 19.7984 80.1455 20.5264 80.909 20.9693C81.6725 21.4122 82.5807 21.5339 83.4339 21.3075C83.8564 21.1954 84.2526 21.0012 84.6 20.736C84.9474 20.4709 85.2391 20.1399 85.4586 19.762L91.5525 9.16167C91.9943 8.3957 92.1142 7.48591 91.886 6.63171C91.6578 5.77752 91.1001 5.0486 90.3351 4.60473ZM71.5019 8.97638e-07H70.9482C70.548 -0.000306253 70.1517 0.0782141 69.7819 0.231075C69.412 0.383935 69.076 0.608139 68.7929 0.890873C68.5098 1.17361 68.2853 1.50933 68.132 1.87885C67.9788 2.24837 67.9 2.64445 67.9 3.04445V15.866C67.9 16.266 67.9788 16.662 68.132 17.0316C68.2853 17.4011 68.5098 17.7368 68.7929 18.0195C69.076 18.3023 69.412 18.5265 69.7819 18.6793C70.1517 18.8322 70.548 18.9107 70.9482 18.9104H71.5019C72.3097 18.9104 73.0844 18.5896 73.6556 18.0187C74.2268 17.4478 74.5477 16.6734 74.5477 15.866V3.04445C74.5477 2.64464 74.4689 2.24874 74.3159 1.87936C74.1628 1.50998 73.9384 1.17436 73.6556 0.891654C73.3727 0.608949 73.0369 0.384699 72.6674 0.231709C72.2978 0.0787183 71.9017 -1.61593e-05 71.5017 8.97638e-07H71.5019ZM21.2441 51.3772L0 79.5492L22.2562 83.8438L22.1153 117.217L81.8113 132.792L81.9258 133L82.1454 132.878H82.1716V132.857L122.297 110.842V78.1296L138.051 70.5618L121.12 45.2717L121.27 45.2024L64.5773 34.089L21.2441 51.377M130.377 68.8534L97.3528 84.7173L83.1886 62.6528L116.537 47.5838L116.262 47.7675L130.377 68.8534ZM64.8232 39.2904L105.065 47.1972L79.09 58.9308L35.2031 51.1529L64.8232 39.2904ZM75.2137 63.5021L60.9849 86.516L8.77689 76.4454L25.8843 54.1925L75.2137 63.5021ZM26.9966 113.634L27.1161 85.1538L63.3552 92.1444L77.0445 71.2323L76.8989 126.651L26.9966 113.634ZM81.9879 127.405L82.1382 70.4188L95.5053 91.2449L117.017 80.9094V108.177L81.9879 127.405Z" fill="#B6BAC9"/>
</svg>
